HIERARCHY
ROOT Hips
{
	OFFSET 0.000000 83.214638 0.000000
	CHANNELS 6 Xposition Yposition Zposition Xrotation Yrotation Zrotation
	JOINT Pelvis
	{
		OFFSET 0.000000 0.000000 0.000000
		CHANNELS 3 Xrotation Yrotation Zrotation
		JOINT LeftUpLeg
		{
			OFFSET 8.479700 -4.795502 -0.379100
			CHANNELS 3 Xrotation Yrotation Zrotation
			JOINT LeftLeg
			{
				OFFSET 0.024144 -32.555107 0.112900
				CHANNELS 3 Xrotation Yrotation Zrotation
				JOINT LeftFoot
				{
					OFFSET -0.024144 -32.638630 -3.012600
					CHANNELS 3 Xrotation Yrotation Zrotation
					JOINT LeftToeBase
					{
						OFFSET 0.970200 -13.225400 11.864200
						CHANNELS 3 Xrotation Yrotation Zrotation
						End Site
						{
							OFFSET 0.000000 12.319262 0.000000
						}
					}
					JOINT LFootTongue
					{
						OFFSET 1.142400 -1.059800 6.665200
						CHANNELS 3 Xrotation Yrotation Zrotation
						End Site
						{
							OFFSET 0.000000 12.319262 0.000000
						}
					}
				}
				JOINT LeftPantLeg
				{
					OFFSET 0.918482 -16.533964 -2.284700
					CHANNELS 3 Xrotation Yrotation Zrotation
					End Site
					{
						OFFSET 0.350399 24.744368 0.000000
					}
				}
			}
		}
		JOINT RightUpLeg
		{
			OFFSET -8.479700 -4.795502 -0.379100
			CHANNELS 3 Xrotation Yrotation Zrotation
			JOINT RightLeg
			{
				OFFSET -0.023144 -32.555092 0.112900
				CHANNELS 3 Xrotation Yrotation Zrotation
				JOINT RightFoot
				{
					OFFSET 0.023144 -32.638641 -3.012700
					CHANNELS 3 Xrotation Yrotation Zrotation
					JOINT RightToeBase
					{
						OFFSET -0.970200 -13.225400 11.864200
						CHANNELS 3 Xrotation Yrotation Zrotation
						End Site
						{
							OFFSET 0.000000 12.319244 0.000000
						}
					}
					JOINT RFootTongue
					{
						OFFSET -1.142200 -1.059800 6.665200
						CHANNELS 3 Xrotation Yrotation Zrotation
						End Site
						{
							OFFSET 0.000000 12.319243 0.000000
						}
					}
				}
				JOINT RightPantLeg
				{
					OFFSET -0.919482 -16.533978 -2.284800
					CHANNELS 3 Xrotation Yrotation Zrotation
					End Site
					{
						OFFSET -0.350400 24.744419 0.000000
					}
				}
			}
		}
	}
	JOINT Spine
	{
		OFFSET 0.000000 7.722000 1.166200
		CHANNELS 3 Xrotation Yrotation Zrotation
		JOINT Spine1
		{
			OFFSET 0.000000 12.024101 0.248800
			CHANNELS 3 Xrotation Yrotation Zrotation
			JOINT Spine2
			{
				OFFSET 0.000000 11.502998 -0.491200
				CHANNELS 3 Xrotation Yrotation Zrotation
				JOINT Neck
				{
					OFFSET 0.000000 18.430702 -3.123100
					CHANNELS 3 Xrotation Yrotation Zrotation
					JOINT Head
					{
						OFFSET 0.000000 9.051102 1.034000
						CHANNELS 3 Xrotation Yrotation Zrotation
						JOINT HairB
						{
							OFFSET 0.208400 24.786102 24.822300
							CHANNELS 3 Xrotation Yrotation Zrotation
							End Site
							{
								OFFSET 0.000000 32.263779 0.000000
							}
						}
						JOINT HairA
						{
							OFFSET -7.081100 24.428299 23.196600
							CHANNELS 3 Xrotation Yrotation Zrotation
							End Site
							{
								OFFSET 0.000000 32.263779 0.000000
							}
						}
						JOINT Hat
						{
							OFFSET 16.728800 15.048294 -15.439601
							CHANNELS 3 Xrotation Yrotation Zrotation
							End Site
							{
								OFFSET 0.000000 32.263779 0.000000
							}
						}
					}
				}
				JOINT LeftShoulder
				{
					OFFSET 6.197800 13.665199 -4.064700
					CHANNELS 3 Xrotation Yrotation Zrotation
					JOINT LeftArm
					{
						OFFSET 7.778100 -0.187103 -1.709300
						CHANNELS 3 Xrotation Yrotation Zrotation
						JOINT LeftForeArm
						{
							OFFSET 22.049376 0.000000 0.000000
							CHANNELS 3 Xrotation Yrotation Zrotation
							JOINT LeftHand
							{
								OFFSET 23.009392 0.000000 0.000000
								CHANNELS 3 Xrotation Yrotation Zrotation
								JOINT LeftHandThumb1
								{
									OFFSET 3.507191 -2.063065 3.133727
									CHANNELS 3 Xrotation Yrotation Zrotation
									JOINT LeftHandThumb2
									{
										OFFSET 3.101337 -1.790558 1.790558
										CHANNELS 3 Xrotation Yrotation Zrotation
										JOINT LeftHandThumb3
										{
											OFFSET 3.058640 -1.765907 1.765906
											CHANNELS 3 Xrotation Yrotation Zrotation
											End Site
											{
												OFFSET -0.415260 3.926476 -0.049563
											}
										}
									}
								}
								JOINT LeftHandIndex1
								{
									OFFSET 11.334419 -0.901459 3.706815
									CHANNELS 3 Xrotation Yrotation Zrotation
									JOINT LeftHandIndex2
									{
										OFFSET 3.283112 0.000000 0.000000
										CHANNELS 3 Xrotation Yrotation Zrotation
										JOINT LeftHandIndex3
										{
											OFFSET 3.323853 0.000000 0.000000
											CHANNELS 3 Xrotation Yrotation Zrotation
											End Site
											{
												OFFSET -1.135597 3.097809 0.402452
											}
										}
									}
								}
								JOINT LeftHandMiddle1
								{
									OFFSET 11.335861 0.000000 0.000000
									CHANNELS 3 Xrotation Yrotation Zrotation
									JOINT LeftHandMiddle2
									{
										OFFSET 3.410492 0.000000 0.000000
										CHANNELS 3 Xrotation Yrotation Zrotation
										JOINT LeftHandMiddle3
										{
											OFFSET 3.312172 0.000000 0.000000
											CHANNELS 3 Xrotation Yrotation Zrotation
											End Site
											{
												OFFSET -1.150200 3.080154 0.400270
											}
										}
									}
								}
								JOINT LeftHandRing1
								{
									OFFSET 11.514786 -0.013176 -3.003090
									CHANNELS 3 Xrotation Yrotation Zrotation
									JOINT LeftHandRing2
									{
										OFFSET 3.053307 0.000000 0.000000
										CHANNELS 3 Xrotation Yrotation Zrotation
										JOINT LeftHandRing3
										{
											OFFSET 3.295807 0.000000 0.000000
											CHANNELS 3 Xrotation Yrotation Zrotation
											End Site
											{
												OFFSET -1.281006 3.013344 0.375733
											}
										}
									}
								}
								JOINT LeftHandPinky1
								{
									OFFSET 10.518692 -0.960396 -5.730441
									CHANNELS 3 Xrotation Yrotation Zrotation
									JOINT LeftHandPinky2
									{
										OFFSET 2.861649 0.000000 0.000000
										CHANNELS 3 Xrotation Yrotation Zrotation
										JOINT LeftHandPinky3
										{
											OFFSET 2.863380 0.000000 0.000000
											CHANNELS 3 Xrotation Yrotation Zrotation
											End Site
											{
												OFFSET -0.843597 2.711159 0.369971
											}
										}
									}
								}
							}
							JOINT LSleeve
							{
								OFFSET 6.676277 -0.344902 -1.011730
								CHANNELS 3 Xrotation Yrotation Zrotation
								End Site
								{
									OFFSET 0.000000 14.885353 0.000000
								}
							}
						}
					}
				}
				JOINT RightShoulder
				{
					OFFSET -6.197800 13.665199 -4.064700
					CHANNELS 3 Xrotation Yrotation Zrotation
					JOINT RightArm
					{
						OFFSET -7.778100 -0.187103 -1.709300
						CHANNELS 3 Xrotation Yrotation Zrotation
						JOINT RightForeArm
						{
							OFFSET -22.049376 0.000000 0.000000
							CHANNELS 3 Xrotation Yrotation Zrotation
							JOINT RightHand
							{
								OFFSET -23.009392 0.000000 0.000000
								CHANNELS 3 Xrotation Yrotation Zrotation
								JOINT RightHandThumb1
								{
									OFFSET -3.507191 -2.063065 3.133727
									CHANNELS 3 Xrotation Yrotation Zrotation
									JOINT RightHandThumb2
									{
										OFFSET -3.101337 -1.790558 1.790558
										CHANNELS 3 Xrotation Yrotation Zrotation
										JOINT RightHandThumb3
										{
											OFFSET -3.058640 -1.765907 1.765906
											CHANNELS 3 Xrotation Yrotation Zrotation
											End Site
											{
												OFFSET 0.415260 3.926476 -0.049563
											}
										}
									}
								}
								JOINT RightHandIndex1
								{
									OFFSET -11.334419 -0.901459 3.706815
									CHANNELS 3 Xrotation Yrotation Zrotation
									JOINT RightHandIndex2
									{
										OFFSET -3.283112 0.000000 0.000000
										CHANNELS 3 Xrotation Yrotation Zrotation
										JOINT RightHandIndex3
										{
											OFFSET -3.323853 0.000000 0.000000
											CHANNELS 3 Xrotation Yrotation Zrotation
											End Site
											{
												OFFSET 1.135597 3.097809 0.402452
											}
										}
									}
								}
								JOINT RightHandMiddle1
								{
									OFFSET -11.335861 0.000000 0.000000
									CHANNELS 3 Xrotation Yrotation Zrotation
									JOINT RightHandMiddle2
									{
										OFFSET -3.410492 0.000000 0.000000
										CHANNELS 3 Xrotation Yrotation Zrotation
										JOINT RightHandMiddle3
										{
											OFFSET -3.312172 0.000000 0.000000
											CHANNELS 3 Xrotation Yrotation Zrotation
											End Site
											{
												OFFSET 1.150200 3.080154 0.400270
											}
										}
									}
								}
								JOINT RightHandRing1
								{
									OFFSET -11.514786 -0.013176 -3.003090
									CHANNELS 3 Xrotation Yrotation Zrotation
									JOINT RightHandRing2
									{
										OFFSET -3.053307 0.000000 0.000000
										CHANNELS 3 Xrotation Yrotation Zrotation
										JOINT RightHandRing3
										{
											OFFSET -3.295807 0.000000 0.000000
											CHANNELS 3 Xrotation Yrotation Zrotation
											End Site
											{
												OFFSET 1.281006 3.013344 0.375733
											}
										}
									}
								}
								JOINT RightHandPinky1
								{
									OFFSET -10.518692 -0.960396 -5.730441
									CHANNELS 3 Xrotation Yrotation Zrotation
									JOINT RightHandPinky2
									{
										OFFSET -2.861649 0.000000 0.000000
										CHANNELS 3 Xrotation Yrotation Zrotation
										JOINT RightHandPinky3
										{
											OFFSET -2.863380 0.000000 0.000000
											CHANNELS 3 Xrotation Yrotation Zrotation
											End Site
											{
												OFFSET 0.843597 2.711159 0.369971
											}
										}
									}
								}
							}
							JOINT RSleeve
							{
								OFFSET -6.676277 -0.344902 -1.011730
								CHANNELS 3 Xrotation Yrotation Zrotation
								End Site
								{
									OFFSET 0.000000 14.885353 0.000000
								}
							}
						}
					}
				}
				JOINT Backpack
				{
					OFFSET 0.000000 -2.471497 36.677502
					CHANNELS 3 Xrotation Yrotation Zrotation
					End Site
					{
						OFFSET 0.000000 20.427315 0.000000
					}
				}
				JOINT Hood
				{
					OFFSET 0.000000 18.754097 -10.431000
					CHANNELS 3 Xrotation Yrotation Zrotation
					JOINT Hood1
					{
						OFFSET 0.000000 -5.011002 -7.685901
						CHANNELS 3 Xrotation Yrotation Zrotation
						End Site
						{
							OFFSET 0.000000 9.175140 0.000000
						}
					}
				}
				JOINT LHoodieString
				{
					OFFSET 5.250500 16.397697 3.089900
					CHANNELS 3 Xrotation Yrotation Zrotation
					JOINT LHoodieString1
					{
						OFFSET 0.257700 -6.364304 3.694600
						CHANNELS 3 Xrotation Yrotation Zrotation
						JOINT LHoodieString2
						{
							OFFSET 0.000000 -9.643799 2.679100
							CHANNELS 3 Xrotation Yrotation Zrotation
							End Site
							{
								OFFSET 0.000000 10.009018 0.000000
							}
						}
					}
				}
				JOINT RHoodieString
				{
					OFFSET -5.250500 16.397697 3.089900
					CHANNELS 3 Xrotation Yrotation Zrotation
					JOINT RHoodieString1
					{
						OFFSET -0.257700 -6.364304 3.694600
						CHANNELS 3 Xrotation Yrotation Zrotation
						JOINT RHoodieString2
						{
							OFFSET 0.000000 -9.643799 2.679100
							CHANNELS 3 Xrotation Yrotation Zrotation
							End Site
							{
								OFFSET 0.000000 10.009018 0.000000
							}
						}
					}
				}
			}
			JOINT LBackpack_Strap
			{
				OFFSET 15.223200 -7.719803 -6.610900
				CHANNELS 3 Xrotation Yrotation Zrotation
				End Site
				{
					OFFSET 0.000000 16.040596 0.000000
				}
			}
			JOINT RBackpack_Strap
			{
				OFFSET -15.223000 -7.719803 -6.610900
				CHANNELS 3 Xrotation Yrotation Zrotation
				End Site
				{
					OFFSET 0.000000 16.040596 0.000000
				}
			}
		}
	}
	JOINT BoyFacialAnim_Joint
	{
		OFFSET 1.000000 -82.208099 -1.550900
		CHANNELS 3 Xrotation Yrotation Zrotation
		End Site
		{
			OFFSET 0.000000 30.012791 0.000000
		}
	}
}
MOTION
Frames: 4
Frame Time: 0.016667
0.096730 68.535431 0.041260 11.811436 2.970685 -1.331810 -0.000000 -0.000000 -0.000000 -55.985777 1.520729 4.899999 76.346461 7.598748 -0.649279 -31.169613 5.520675 -5.262327 -0.000000 0.000000 -0.000000 -0.000000 0.000000 -0.000000 0.000003 0.000000 -0.000001 -53.662617 -14.549039 -6.387762 75.217158 -8.082545 -4.584044 -34.189635 -10.108913 4.287613 0.000000 -0.000001 0.000000 0.000000 -0.000001 0.000000 0.000003 -0.000000 0.000000 9.874446 1.473831 1.195774 7.603464 0.776396 0.053754 7.594515 0.865696 0.034386 -11.221133 -1.914916 7.441274 -27.443505 2.006291 -5.891922 0.000000 0.000000 0.000000 0.000000 0.000000 0.000000 0.000000 0.000000 0.000000 3.557357 -26.212555 4.772374 -62.448713 -21.862974 -66.788219 0.000088 -109.334342 0.000091 0.750557 -5.137684 14.576870 -15.245214 10.163080 26.456301 3.939052 7.948699 0.746811 0.000002 -0.000004 0.000000 -0.000004 -0.000000 0.000009 0.000010 0.000018 -0.000069 -0.000001 0.000004 -0.000001 0.000001 -0.001929 0.015983 -0.000000 0.001946 -0.016054 -0.000003 0.000001 0.000000 0.000004 -0.000002 0.000006 -0.000001 0.000020 -0.000077 -0.000002 -0.000000 0.000001 -0.018085 4.054259 0.511069 -0.018083 -4.054241 -0.511129 0.000000 0.000002 0.000000 -0.000000 0.000000 0.000003 1.196395 13.130263 10.955149 -58.753233 43.561205 51.473767 0.000267 106.323963 -0.000252 3.436628 -3.949665 -38.593530 -6.948225 -5.049360 -29.742991 4.637200 -8.634125 -0.225405 0.000001 0.000001 -0.000002 -0.000003 -0.000001 -0.000007 0.000007 -0.000005 0.000097 -0.000001 0.000000 0.000002 -0.000002 -0.000006 0.000010 0.000012 -0.000010 0.000082 -0.000001 -0.000004 0.000003 -0.000002 -0.000001 0.000011 0.000010 -0.000012 0.000056 -0.000000 0.000001 0.000001 -0.000004 0.000002 -0.000002 0.000011 -0.000015 0.000080 0.000002 0.000000 -0.000001 -0.000001 0.000001 -0.000002 0.000001 0.000000 0.000000 0.000001 0.000000 0.000000 0.000001 0.000000 0.000000 0.000001 0.000000 0.000000 0.000001 0.000000 0.000000 -0.000004 0.000000 0.000000 0.000001 0.000000 0.000000 0.000001 0.000000 0.000000 -0.000004 0.000000 0.000000 0.000000 0.000000 -0.000000 0.000000 0.000000 -0.000000 -0.000000 -0.000000 -0.000000 
0.094519 68.532951 0.039173 11.799358 2.960742 -1.325437 -0.000000 0.000000 -0.000000 -55.975323 1.520921 4.902187 76.352246 7.602002 -0.651957 -31.173765 5.523098 -5.266971 0.000000 -0.000001 0.000000 0.000000 -0.000001 0.000000 0.000002 0.000001 -0.000001 -53.658181 -14.549406 -6.380260 75.223906 -8.082110 -4.596544 -34.190636 -10.112111 4.286280 0.000000 -0.000001 0.000000 0.000000 -0.000001 0.000000 0.000002 -0.000001 0.000000 9.878134 1.468215 1.202973 7.606518 0.771335 0.057330 7.597684 0.860255 0.038071 -11.217812 -1.906715 7.417774 -27.445208 2.029513 -5.944888 0.000000 -0.000000 -0.000000 0.000000 -0.000000 -0.000000 0.000000 -0.000000 -0.000000 3.557359 -26.212552 4.772373 -62.440251 -21.827234 -66.761711 0.000001 -109.308722 -0.000017 0.684122 -5.143283 14.587539 -15.245216 10.163082 26.456302 3.939052 7.948702 0.746812 -0.000001 0.000002 0.000001 -0.000004 0.000004 0.000008 0.000010 0.000015 -0.000071 0.000001 -0.000004 -0.000004 0.000002 -0.001925 0.015985 0.000000 0.001951 -0.016051 -0.000000 0.000002 -0.000001 0.000005 0.000002 0.000007 -0.000002 0.000021 -0.000076 -0.000001 -0.000004 -0.000003 -0.018081 4.054256 0.511069 -0.018084 -4.054238 -0.511126 -0.000000 -0.000000 -0.000002 0.000002 0.000001 0.000004 1.196366 13.156127 10.917911 -58.738794 43.556178 51.453208 0.000050 106.272682 -0.000050 3.405174 -3.961061 -38.612084 -6.948226 -5.049354 -29.742988 4.637202 -8.634128 -0.225407 -0.000001 -0.000002 -0.000001 -0.000003 -0.000001 -0.000006 0.000008 -0.000007 0.000095 0.000000 -0.000000 0.000002 -0.000003 -0.000004 0.000010 0.000012 -0.000013 0.000082 -0.000001 0.000001 -0.000000 -0.000001 0.000003 0.000011 0.000010 -0.000012 0.000058 0.000001 0.000003 -0.000001 -0.000004 0.000006 -0.000002 0.000011 -0.000018 0.000085 -0.000001 0.000003 -0.000001 -0.000000 -0.000002 -0.000001 0.000002 -0.000000 0.000000 0.000002 -0.000000 0.000000 0.000002 -0.000000 0.000000 0.000002 -0.000000 0.000000 0.000002 -0.000000 0.000000 -0.000002 -0.000000 0.000000 0.000002 -0.000000 0.000000 0.000002 -0.000000 0.000000 -0.000002 -0.000000 0.000000 -0.000003 -0.000000 -0.000000 -0.000003 -0.000000 -0.000000 -0.000000 0.000000 -0.000000 
0.092476 68.530304 0.037163 11.789956 2.953214 -1.320334 0.000000 0.000000 -0.000000 -55.968442 1.521623 4.902638 76.358052 7.605105 -0.652237 -31.177484 5.527300 -5.271057 0.000000 0.000000 0.000000 0.000000 0.000000 0.000000 0.000002 0.000002 -0.000002 -53.656815 -14.554532 -6.376852 75.230845 -8.081083 -4.608538 -34.193023 -10.111923 4.285068 0.000000 -0.000001 0.000000 0.000000 -0.000001 0.000000 0.000003 0.000001 -0.000001 9.881313 1.462389 1.209211 7.609031 0.766257 0.060673 7.600273 0.854942 0.041498 -11.217679 -1.900473 7.402072 -27.452692 2.051494 -5.990265 0.000000 -0.000000 -0.000000 0.000000 -0.000000 -0.000000 0.000000 -0.000000 -0.000000 3.557358 -26.212550 4.772372 -62.433502 -21.799061 -66.740299 -0.000005 -109.303005 0.000001 0.645387 -5.153771 14.610231 -15.245214 10.163087 26.456304 3.939050 7.948702 0.746814 -0.000000 0.000007 0.000002 -0.000004 0.000005 0.000003 0.000010 0.000015 -0.000069 0.000001 -0.000002 -0.000000 0.000002 -0.001928 0.015983 -0.000001 0.001951 -0.016055 -0.000000 -0.000004 0.000003 0.000006 0.000001 0.000003 -0.000000 0.000018 -0.000074 0.000001 0.000002 -0.000003 -0.018081 4.054261 0.511068 -0.018083 -4.054241 -0.511127 0.000001 0.000001 0.000002 0.000001 0.000003 0.000002 1.196223 13.178826 10.886485 -58.723337 43.560344 51.421042 0.000161 106.244706 -0.000157 3.384683 -3.970390 -38.621294 -6.948223 -5.049359 -29.742991 4.637200 -8.634124 -0.225403 0.000000 0.000002 -0.000001 -0.000003 -0.000001 -0.000006 0.000008 -0.000006 0.000097 -0.000001 0.000001 0.000005 -0.000001 -0.000004 0.000012 0.000013 -0.000010 0.000082 -0.000002 -0.000001 -0.000004 -0.000002 0.000003 0.000010 0.000008 -0.000013 0.000057 -0.000001 -0.000001 0.000000 -0.000004 0.000002 -0.000004 0.000010 -0.000013 0.000080 -0.000002 0.000001 0.000000 -0.000002 0.000000 -0.000003 -0.000000 0.000000 -0.000000 -0.000000 0.000000 -0.000000 -0.000000 0.000000 -0.000000 -0.000000 0.000000 -0.000000 -0.000000 0.000000 -0.000000 -0.000000 0.000000 -0.000000 -0.000000 0.000000 -0.000000 -0.000000 0.000000 -0.000000 -0.000000 0.000000 -0.000000 0.000002 0.000000 0.000000 0.000002 0.000000 0.000000 0.000000 0.000000 -0.000000 
0.090757 68.527618 0.035431 11.783833 2.948056 -1.316321 0.000001 0.000000 -0.000000 -55.965750 1.523016 4.901109 76.363817 7.608023 -0.649620 -31.180363 5.532136 -5.274989 0.000000 0.000000 0.000000 0.000000 0.000000 0.000000 0.000001 0.000001 -0.000000 -53.658680 -14.561890 -6.378067 75.238277 -8.078648 -4.617600 -34.195923 -10.108588 4.283744 0.000000 -0.000001 0.000000 0.000000 -0.000001 0.000000 0.000001 -0.000001 0.000001 9.884112 1.456040 1.213653 7.610894 0.761038 0.063448 7.602197 0.849653 0.044323 -11.220966 -1.896256 7.395013 -27.466499 2.071049 -6.020812 0.000000 -0.000000 -0.000000 0.000000 -0.000000 -0.000000 0.000000 -0.000000 -0.000000 3.557362 -26.212552 4.772372 -62.430477 -21.781195 -66.726379 0.000135 -109.318421 0.000135 0.640061 -5.168566 14.635364 -15.245209 10.163083 26.456304 3.939053 7.948708 0.746813 0.000001 0.000001 0.000000 -0.000002 0.000004 0.000005 0.000011 0.000015 -0.000069 -0.000001 -0.000001 -0.000000 0.000002 -0.001924 0.015983 -0.000000 0.001951 -0.016051 -0.000001 0.000001 0.000000 0.000008 0.000001 0.000003 -0.000001 0.000024 -0.000073 -0.000001 0.000000 -0.000000 -0.018080 4.054260 0.511066 -0.018083 -4.054242 -0.511131 0.000001 0.000001 -0.000000 -0.000000 -0.000001 0.000004 1.195820 13.196528 10.865739 -58.712709 43.570757 51.388567 0.000157 106.243886 -0.000165 3.384062 -3.974723 -38.619901 -6.948224 -5.049362 -29.742991 4.637200 -8.634125 -0.225404 -0.000001 0.000001 -0.000001 -0.000003 -0.000004 -0.000005 0.000008 -0.000006 0.000099 -0.000001 0.000000 0.000004 -0.000001 -0.000009 0.000010 0.000013 -0.000012 0.000084 -0.000001 -0.000001 -0.000002 -0.000002 0.000002 0.000009 0.000009 -0.000009 0.000055 -0.000001 0.000000 0.000002 -0.000004 -0.000000 -0.000001 0.000012 -0.000015 0.000080 -0.000001 -0.000001 -0.000002 -0.000001 -0.000000 -0.000000 0.000003 0.000000 -0.000000 0.000003 0.000000 -0.000000 0.000003 0.000000 -0.000000 0.000003 0.000000 -0.000000 0.000003 0.000000 -0.000000 0.000001 0.000000 0.000000 0.000003 0.000000 -0.000000 0.000003 0.000000 -0.000000 0.000001 0.000000 0.000000 -0.000003 -0.000000 0.000000 -0.000003 -0.000000 0.000000 0.000001 0.000000 -0.000000 
